<svg xmlns="http://www.w3.org/2000/svg" style="display: none;">

  <!-- 1 -->
  <symbol id="flecha-derecha" viewBox="0 0 24 24" fill="none" stroke="currentColor" stroke-width="2" stroke-linecap="round" stroke-linejoin="round">
    <path d="M12 15V3" />
    <path d="M21 15v4a2 2 0 0 1-2 2H5a2 2 0 0 1-2-2v-4" />
    <path d="m7 10 5 5 5-5" />
  </symbol>

  <!-- 2 -->
  <symbol id="cruz" viewBox="0 0 24 24" fill="none" stroke="currentColor" stroke-width="2" stroke-linecap="round" stroke-linejoin="round">
    <path d="M2.062 12.348a1 1 0 0 1 0-.696 10.75 10.75 0 0 1 19.876 0 1 1 0 0 1 0 .696 10.75 10.75 0 0 1-19.876 0" />
    <circle cx="12" cy="12" r="3" />
  </symbol>

  <!-- 3 -->
  <symbol id="lupa" viewBox="0 0 24 24" fill="none" stroke="currentColor" stroke-width="2" stroke-linecap="round" stroke-linejoin="round">
    <path d="M15 2H6a2 2 0 0 0-2 2v16a2 2 0 0 0 2 2h12a2 2 0 0 0 2-2V7Z" />
    <path d="M14 2v4a2 2 0 0 0 2 2h4" />
    <path d="m9 15 2 2 4-4" />
  </symbol>

  <!-- 4 -->
  <symbol id="estrella" viewBox="0 0 24 24" fill="none" stroke="currentColor" stroke-width="2" stroke-linecap="round" stroke-linejoin="round">
    <path d="M15 2H6a2 2 0 0 0-2 2v16a2 2 0 0 0 2 2h12a2 2 0 0 0 2-2V7Z" />
    <path d="M14 2v4a2 2 0 0 0 2 2h4" />
    <path d="M10 9H8" />
    <path d="M16 13H8" />
    <path d="M16 17H8" />
  </symbol>

  <!-- 5 -->
  <symbol id="engranaje" viewBox="0 0 576 512" fill="currentColor">
    <path d="M384 160c-17.7 0-32-14.3-32-32s14.3-32 32-32l160 0c17.7 0 32 14.3 32 32l0 160c0 17.7-14.3 32-32 32s-32-14.3-32-32l0-82.7L342.6 374.6c-12.5 12.5-32.8 12.5-45.3 0L192 269.3 54.6 406.6c-12.5 12.5-32.8 12.5-45.3 0s-12.5-32.8 0-45.3l160-160c12.5-12.5 32.8-12.5 45.3 0L320 306.7 466.7 160 384 160z"/>
  </symbol>

  <!-- 6 -->
  <symbol id="mas" viewBox="0 0 512 512" fill="currentColor">
    <path d="M125.7 160l50.3 0c17.7 0 32 14.3 32 32s-14.3 32-32 32L48 224c-17.7 0-32-14.3-32-32L16 64c0-17.7 14.3-32 32-32s32 14.3 32 32l0 51.2L97.6 97.6c87.5-87.5 229.3-87.5 316.8 0s87.5 229.3 0 316.8s-229.3 87.5-316.8 0c-12.5-12.5-12.5-32.8 0-45.3s32.8-12.5 45.3 0c62.5 62.5 163.8 62.5 226.3 0s62.5-163.8 0-226.3s-163.8-62.5-226.3 0L125.7 160z"/>
  </symbol>

  <!-- 7 -->
  <symbol id="recargar" viewBox="0 0 24 24" fill="none" stroke="currentColor" stroke-width="2" stroke-linecap="round" stroke-linejoin="round">
    <path stroke="#E0F2F7" d="M21.42 10.922a1 1 0 0 0-.019-1.838L12.83 5.18a2 2 0 0 0-1.66 0L2.6 9.08a1 1 0 0 0 0 1.832l8.57 3.908a2 2 0 0 0 1.66 0z" />
    <path stroke="#E0F2F7" d="M22 10v6" />
    <path stroke="#E0F2F7" d="M6 12.5V16a6 3 0 0 0 12 0v-3.5" />
  </symbol>

  <!-- 8 -->
  <symbol id="buscar" viewBox="0 0 640 512" fill="currentColor">
    <path d="M320 32c-8.1 0-16.1 1.4-23.7 4.1L15.8 137.4C6.3 140.9 0 149.9 0 160s6.3 19.1 15.8 22.6l57.9 20.9C57.3 229.3 48 259.8 48 291.9l0 28.1c0 28.4-10.8 57.7-22.3 80.8c-6.5 13-13.9 25.8-22.5 37.6C0 442.7-.9 448.3 .9 453.4s6 8.9 11.2 10.2l64 16c4.2 1.1 8.7 .3 12.4-2s6.3-6.1 7.1-10.4c8.6-42.8 4.3-81.2-2.1-108.7C90.3 344.3 86 329.8 80 316.5l0-24.6c0-30.2 10.2-58.7 27.9-81.5c12.9-15.5 29.6-28 49.2-35.7l157-61.7c8.2-3.2 17.5 .8 20.7 9s-.8 17.5-9 20.7l-157 61.7c-12.4 4.9-23.3 12.4-32.2 21.6l159.6 57.6c7.6 2.7 15.6 4.1 23.7 4.1s16.1-1.4 23.7-4.1L624.2 182.6c9.5-3.4 15.8-12.5 15.8-22.6s-6.3-19.1-15.8-22.6L343.7 36.1C336.1 33.4 328.1 32 320 32zM128 408c0 35.3 86 72 192 72s192-36.7 192-72L496.7 262.6 354.5 314c-11.1 4-22.8 6-34.5 6s-23.5-2-34.5-6L143.3 262.6 128 408z"/>
  </symbol>

  <!-- 9 -->
  <symbol id="escudo" viewBox="0 0 24 24" fill="none" stroke="currentColor" stroke-width="2" stroke-linecap="round" stroke-linejoin="round">
    <path stroke="#E0F2F7" d="M15 21v-8a1 1 0 0 0-1-1h-4a1 1 0 0 0-1 1v8"></path>
    <path stroke="#E0F2F7" d="M3 10a2 2 0 0 1 .709-1.528l7-5.999a2 2 0 0 1 2.582 0l7 5.999A2 2 0 0 1 21 10v9a2 2 0 0 1-2 2H5a2 2 0 0 1-2-2z"></path>
    <path></path>
  </symbol>

  <!-- 10 -->
  <symbol id="medalla" viewBox="0 0 448 512" fill="currentColor">
    <path d="M256 80c0-17.7-14.3-32-32-32s-32 14.3-32 32l0 144L48 224c-17.7 0-32 14.3-32 32s14.3 32 32 32l144 0 0 144c0 17.7 14.3 32 32 32s32-14.3 32-32l0-144 144 0c17.7 0 32-14.3 32-32s-14.3-32-32-32l-144 0 0-144z"/>
  </symbol>

  <!-- 11 -->
  <symbol id="medalla-alt" viewBox="0 0 512 512" fill="currentColor">
    <path d="M4.1 38.2C1.4 34.2 0 29.4 0 24.6C0 11 11 0 24.6 0L133.9 0c11.2 0 21.7 5.9 27.4 15.5l68.5 114.1c-48.2 6.1-91.3 28.6-123.4 61.9L4.1 38.2zm503.7 0L405.6 191.5c-32.1-33.3-75.2-55.8-123.4-61.9L350.7 15.5C356.5 5.9 366.9 0 378.1 0L487.4 0C501 0 512 11 512 24.6c0 4.8-1.4 9.6-4.1 13.6zM80 336a176 176 0 1 1 352 0A176 176 0 1 1 80 336zm184.4-94.9c-3.4-7-13.3-7-16.8 0l-22.4 45.4c-1.4 2.8-4 4.7-7 5.1L168 298.9c-7.7 1.1-10.7 10.5-5.2 16l36.3 35.4c2.2 2.2 3.2 5.2 2.7 8.3l-8.6 49.9c-1.3 7.6 6.7 13.5 13.6 9.9l44.8-23.6c2.7-1.4 6-1.4 8.7 0l44.8 23.6c6.9 3.6 14.9-2.2 13.6-9.9l-8.6-49.9c-.5-3 .5-6.1 2.7-8.3l36.3-35.4c5.6-5.4 2.5-14.8-5.2-16l-50.1-7.3c-3-.4-5.7-2.4-7-5.1l-22.4-45.4z"/>
  </symbol>

  <!-- 12 -->
  <symbol id="configuracion" viewBox="0 0 24 24" fill="none" stroke="currentColor" stroke-width="2" stroke-linecap="round" stroke-linejoin="round">
    <path d="M12.22 2h-.44a2 2 0 0 0-2 2v.18a2 2 0 0 1-1 1.73l-.43.25a2 2 0 0 1-2 0l-.15-.08a2 2 0 0 0-2.73.73l-.22.38a2 2 0 0 0 .73 2.73l.15.1a2 2 0 0 1 1 1.72v.51a2 2 0 0 1-1 1.74l-.15.09a2 2 0 0 0-.73 2.73l.22.38a2 2 0 0 0 2.73.73l.15-.08a2 2 0 0 1 2 0l.43.25a2 2 0 0 1 1 1.73V20a2 2 0 0 0 2 2h.44a2 2 0 0 0 2-2v-.18a2 2 0 0 1 1-1.73l.43-.25a2 2 0 0 1 2 0l.15.08a2 2 0 0 0 2.73-.73l.22-.39a2 2 0 0 0-.73-2.73l-.15-.08a2 2 0 0 1-1-1.74v-.5a2 2 0 0 1 1-1.74l.15-.09a2 2 0 0 0 .73-2.73l-.22-.38a2 2 0 0 0-2.73-.73l-.15.08a2 2 0 0 1-2 0l-.43-.25a2 2 0 0 1-1-1.73V4a2 2 0 0 0-2-2z" />
    <circle cx="12" cy="12" r="3" />
  </symbol>

  <!-- 13 -->
  <symbol id="escudo-alt" viewBox="0 0 24 24" fill="none" stroke="currentColor" stroke-width="2" stroke-linecap="round" stroke-linejoin="round">
    <path d="M20 13c0 5-3.5 7.5-7.66 8.95a1 1 0 0 1-.67-.01C7.5 20.5 4 18 4 13V6a1 1 0 0 1 1-1c2 0 4.5-1.2 6.24-2.72a1.17 1.17 0 0 1 1.52 0C14.51 3.81 17 5 19 5a1 1 0 0 1 1 1z" />
  </symbol>

  <!-- 14 -->
  <symbol id="estrella" viewBox="0 0 576 512" fill="currentColor">
    <path d="M316.9 18C311.6 7 300.4 0 288.1 0s-23.4 7-28.8 18L195 150.3 51.4 171.5c-12 1.8-22 10.2-25.7 21.7s-.7 24.2 7.9 32.7L137.8 329 113.2 474.7c-2 12 3 24.2 12.9 31.3s23 8 33.8 2.3l128.3-68.5 128.3 68.5c10.8 5.7 23.9 4.9 33.8-2.3s14.9-19.3 12.9-31.3L438.5 329 542.7 225.9c8.6-8.5 11.7-21.2 7.9-32.7s-13.7-19.9-25.7-21.7L381.2 150.3 316.9 18z"/>
  </symbol>

  <!-- 15 -->
  <symbol id="estrella-alt" viewBox="0 0 24 24" fill="none" stroke="currentColor" stroke-width="2" stroke-linecap="round" stroke-linejoin="round">
    <path d="M11.525 2.295a.53.53 0 0 1 .95 0l2.31 4.679a2.123 2.123 0 0 0 1.595 1.16l5.166.756a.53.53 0 0 1 .294.904l-3.736 3.638a2.123 2.123 0 0 0-.611 1.878l.882 5.14a.53.53 0 0 1-.771.56l-4.618-2.428a2.122 2.122 0 0 0-1.973 0L6.396 21.01a.53.53 0 0 1-.77-.56l.881-5.139a2.122 2.122 0 0 0-.611-1.879L2.16 9.795a.53.53 0 0 1 .294-.906l5.165-.755a2.122 2.122 0 0 0 1.597-1.16z" />
  </symbol>

  <!-- 16 -->
  <symbol id="borrar" viewBox="0 0 24 24" fill="none" stroke="currentColor" stroke-width="2" stroke-linecap="round" stroke-linejoin="round">
    <path d="M10 11v6" />
    <path d="M14 11v6" />
    <path d="M19 6v14a2 2 0 0 1-2 2H7a2 2 0 0 1-2-2V6" />
    <path d="M3 6h18" />
    <path d="M8 6V4a2 2 0 0 1 2-2h4a2 2 0 0 1 2 2v2" />
  </symbol>

  <!-- 17 -->
  <symbol id="subir" viewBox="0 0 24 24" fill="none" stroke="currentColor" stroke-width="2" stroke-linecap="round" stroke-linejoin="round">
    <path d="M12 3v12" />
    <path d="m17 8-5-5-5 5" />
    <path d="M21 15v4a2 2 0 0 1-2 2H5a2 2 0 0 1-2-2v-4" />
  </symbol>

  <!-- 18 -->
  <symbol id="usuario-accion" viewBox="0 0 24 24" fill="none" stroke="currentColor" stroke-width="2" stroke-linecap="round" stroke-linejoin="round">
    <path d="M16 21v-2a4 4 0 0 0-4-4H6a4 4 0 0 0-4 4v2"></path>
    <circle cx="9" cy="7" r="4"></circle>
    <line x1="19" x2="19" y1="8" y2="14"></line>
    <line x1="22" x2="16" y1="11" y2="11"></line>
  </symbol>

  <!-- 19 -->
  <symbol id="usuario" viewBox="0 0 640 512" fill="currentColor">
    <path d="M96 128a128 128 0 1 1 256 0A128 128 0 1 1 96 128zM0 482.3C0 383.8 79.8 304 178.3 304l91.4 0C368.2 304 448 383.8 448 482.3c0 16.4-13.3 29.7-29.7 29.7L29.7 512C13.3 512 0 498.7 0 482.3zM609.3 512l-137.8 0c5.4-9.4 8.6-20.3 8.6-32l0-8c0-60.7-27.1-115.2-69.8-151.8c2.4-.1 4.7-.2 7.1-.2l61.4 0C567.8 320 640 392.2 640 481.3c0 17-13.8 30.7-30.7 30.7zM432 256c-31 0-59-12.6-79.3-32.9C372.4 196.5 384 163.6 384 128c0-26.8-6.6-52.1-18.3-74.3C384.3 40.1 407.2 32 432 32c61.9 0 112 50.1 112 112s-50.1 112-112 112z"/>
  </symbol>

  <!-- 20 -->
  <symbol id="usuarios" viewBox="0 0 24 24" fill="none" stroke="currentColor" stroke-width="2" stroke-linecap="round" stroke-linejoin="round">
    <path stroke="#E0F2F7" d="M19 21v-2a4 4 0 0 0-4-4H9a4 4 0 0 0-4 4v2" />
    <circle stroke="#E0F2F7" cx="12" cy="7" r="4" />
  </symbol>

  <!-- 21 -->
  <symbol id="usuarios-alt" viewBox="0 0 24 24" fill="none" stroke="currentColor" stroke-width="2" stroke-linecap="round" stroke-linejoin="round">
    <path stroke="currentColor" d="M16 21v-2a4 4 0 0 0-4-4H6a4 4 0 0 0-4 4v2" />
    <path stroke="currentColor" d="M16 3.128a4 4 0 0 1 0 7.744" />
    <path stroke="currentcolor" d="M22 21v-2a4 4 0 0 0-3-3.87" />
    <circle stroke="currentColor" cx="9" cy="7" r="4" />
  </symbol>

</svg>
